<?xml version="1.0" encoding="utf-8"?>
<!-- Generator: Adobe Illustrator 19.0.0, SVG Export Plug-In . SVG Version: 6.00 Build 0)  -->
<svg version="1.1" id="Слой_1" xmlns="http://www.w3.org/2000/svg" xmlns:xlink="http://www.w3.org/1999/xlink" x="0px" y="0px"
	 viewBox="-202 51.6 25 25" style="enable-background:new -202 51.6 25 25;" xml:space="preserve">
<style type="text/css">
	.st0{fill:#EB4329;}
	.st1{fill:#3D9EC3;}
</style>
<title>new logo</title>
<desc>Created with Sketch.</desc>
<g id="Page-1">
	<g id="empty-search-filter" transform="translate(-793.000000, -124.000000)">
		<g id="new-logo" transform="translate(793.000000, 124.000000)">
			<path id="Fill-1" class="st0" d="M-191.4,51.6l-1,1l1.9,1.9l-8.7,8.6l-1.8-1.8l-1,1l1.8,1.8l-1.8,1.8l1,1l1.8-1.8l8.7,8.7
				l-1.8,1.8l1,1l1.8-1.8l1.8,1.8l1-1l-1.8-1.8l8.7-8.6l1.8,1.8l1-1l-1.8-1.8l1.7-1.7l-1-1l-1.7,1.7l-8.7-8.7l1.8-1.8l-1-1l-1.8,1.8
				L-191.4,51.6z M-198.2,64l8.7-8.6l8.7,8.7l-8.7,8.6L-198.2,64z"/>
			<path id="Fill-2" class="st1" d="M-189.5,57.7l6.4,6.4l-6.4,6.3l-6.4-6.4L-189.5,57.7z"/>
		</g>
	</g>
</g>
</svg>
