<?xml version="1.0" encoding="UTF-8"?>
<svg width="57px" height="58px" viewBox="0 0 57 58" version="1.1" xmlns="http://www.w3.org/2000/svg" xmlns:xlink="http://www.w3.org/1999/xlink">
    <!-- Generator: Sketch 45.2 (43514) - http://www.bohemiancoding.com/sketch -->
    <title>Icon</title>
    <desc>Created with Sketch.</desc>
    <defs>
        <rect id="path-1" x="0" y="0" width="56.224537" height="56.75" rx="28.1122685"></rect>
    </defs>
    <g id="Page-1" stroke="none" stroke-width="1" fill="none" fill-rule="evenodd">
        <g id="Group-14" transform="translate(0.000000, 0.766715)">
            <g>
                <mask id="mask-2" fill="white">
                    <use xlink:href="#path-1"></use>
                </mask>
                <use id="Rectangle-12" fill="#373A57" xlink:href="#path-1"></use>
                <circle id="Oval-3" fill="#D2FF30" mask="url(#mask-2)" cx="37.2768987" cy="37.2768987" r="8.97943038"></circle>
                <path d="M33.1463608,36.2456673 L33.1463608,36.2625037 L34.324911,36.2625037 L34.324911,36.2414582 C34.324911,35.9524313 34.4168089,35.7188282 34.6006076,35.5406417 C34.7844062,35.3624552 35.0236215,35.2733633 35.3182605,35.2733633 C35.596063,35.2733633 35.8240541,35.3533356 36.0022405,35.5132825 C36.180427,35.6732294 36.2695189,35.8780706 36.2695189,36.1278123 C36.2695189,36.3298504 36.1979648,36.5346917 36.0548544,36.742342 C35.911744,36.9499924 35.6255275,37.2628663 35.1961964,37.6809731 L33.2179156,39.6550447 L33.2179156,40.5094937 L37.599597,40.5094937 L37.599597,39.4866804 L34.9394408,39.4866804 L34.9394408,39.4109165 L36.1011546,38.2660391 C36.6286987,37.7665558 36.995589,37.3540673 37.2018363,37.0285614 C37.4080836,36.7030554 37.5112057,36.3761513 37.5112057,36.0478392 C37.5112057,35.5287133 37.3105736,35.1042991 36.9093033,34.774584 C36.508033,34.4448689 35.9917209,34.2800138 35.3603516,34.2800138 C34.7037274,34.2800138 34.1705791,34.4617052 33.7608905,34.8250933 C33.351202,35.1884815 33.1463608,35.6620014 33.1463608,36.2456673 Z M40.2344986,40.5094937 L41.5056492,40.5094937 L41.5056492,34.4357508 L40.2344986,34.4357508 L39.9987886,34.5999061 C39.8416478,34.7093434 39.6592549,34.8363169 39.4516045,34.9808303 C39.2439542,35.1253438 39.0608598,35.2523172 38.9023159,35.3617546 L38.6645013,35.5259098 L38.6645013,36.6749963 L38.8896886,36.5192593 C39.0398142,36.4154341 39.2137889,36.2947742 39.411618,36.157276 C39.6094471,36.0197778 39.7834218,35.8991179 39.9335474,35.7952927 L40.1587347,35.6395557 L40.2344986,35.6395557 L40.2344986,40.5094937 Z" id="21" fill="#373A57" mask="url(#mask-2)"></path>
                <path d="M12.5957278,36.2456673 L12.5957278,36.2625037 L13.7742781,36.2625037 L13.7742781,36.2414582 C13.7742781,35.9524313 13.866176,35.7188282 14.0499747,35.5406417 C14.2337733,35.3624552 14.4729885,35.2733633 14.7676276,35.2733633 C15.0454301,35.2733633 15.2734212,35.3533356 15.4516076,35.5132825 C15.6297941,35.6732294 15.718886,35.8780706 15.718886,36.1278123 C15.718886,36.3298504 15.6473319,36.5346917 15.5042215,36.742342 C15.3611111,36.9499924 15.0748946,37.2628663 14.6455634,37.6809731 L12.6672827,39.6550447 L12.6672827,40.5094937 L17.0489641,40.5094937 L17.0489641,39.4866804 L14.3888079,39.4866804 L14.3888079,39.4109165 L15.5505217,38.2660391 C16.0780658,37.7665558 16.4449561,37.3540673 16.6512034,37.0285614 C16.8574507,36.7030554 16.9605728,36.3761513 16.9605728,36.0478392 C16.9605728,35.5287133 16.7599407,35.1042991 16.3586704,34.774584 C15.9574001,34.4448689 15.441088,34.2800138 14.8097187,34.2800138 C14.1530945,34.2800138 13.6199462,34.4617052 13.2102576,34.8250933 C12.8005691,35.1884815 12.5957278,35.6620014 12.5957278,36.2456673 Z M20.550942,40.6652307 C19.7989109,40.6652307 19.2082386,40.3832233 18.7789075,39.8192 C18.3495763,39.2551767 18.134914,38.4694844 18.134914,37.4620995 C18.134914,36.4575207 18.3509793,35.6760375 18.7831166,35.1176263 C19.2152538,34.5592152 19.8045231,34.2800138 20.550942,34.2800138 C21.2973608,34.2800138 21.8859285,34.5592152 22.3166628,35.1176263 C22.747397,35.6760375 22.9627608,36.4589237 22.9627608,37.4663086 C22.9627608,38.4708874 22.7488,39.2551767 22.3208719,39.8192 C21.8929437,40.3832233 21.302973,40.6652307 20.550942,40.6652307 Z M20.550942,39.6592539 C20.9017027,39.6592539 21.1759935,39.4726519 21.3738226,39.0994425 C21.5716516,38.7262331 21.6705647,38.1804575 21.6705647,37.4620995 C21.6705647,36.7465475 21.5709501,36.2049811 21.371718,35.8373838 C21.1724859,35.4697865 20.8988966,35.2859907 20.550942,35.2859907 C20.2057934,35.2859907 19.9322041,35.470488 19.7301659,35.8394884 C19.5281277,36.2084887 19.4271101,36.7493536 19.4271101,37.4620995 C19.4271101,38.1804575 19.5274262,38.7262331 19.7280613,39.0994425 C19.9286965,39.4726519 20.2029873,39.6592539 20.550942,39.6592539 Z" id="20" fill="#FFFFFF" mask="url(#mask-2)"></path>
                <path d="M-6.97766268,40.5094937 L-5.70651206,40.5094937 L-5.70651206,34.4357508 L-6.97766268,34.4357508 L-7.21337273,34.5999061 C-7.37051354,34.7093434 -7.5529064,34.8363169 -7.76055676,34.9808303 C-7.96820713,35.1253438 -8.1513015,35.2523172 -8.30984536,35.3617546 L-8.54765996,35.5259098 L-8.54765996,36.6749963 L-8.32247268,36.5192593 C-8.17234708,36.4154341 -7.99837235,36.2947742 -7.80054329,36.157276 C-7.60271423,36.0197778 -7.4287395,35.8991179 -7.2786139,35.7952927 L-7.05342662,35.6395557 L-6.97766268,35.6395557 L-6.97766268,40.5094937 Z M-1.80045985,40.6652307 C-2.37851357,40.6652307 -2.8723773,40.5094952 -3.28206586,40.1980197 C-3.69175442,39.8865441 -3.93868629,39.4796678 -4.02286887,38.9773784 L-2.76434558,38.9773784 C-2.70541777,39.1822226 -2.58826544,39.3456747 -2.41288506,39.4677394 C-2.23750469,39.5898042 -2.03055895,39.6508356 -1.79204163,39.6508356 C-1.3767409,39.6508356 -1.05123981,39.4621292 -0.81552858,39.0847106 C-0.579817354,38.707292 -0.467575597,38.1958905 -0.478799941,37.5504908 L-0.554563884,37.5504908 C-0.694868186,37.8367115 -0.899709393,38.058389 -1.16909365,38.2155298 C-1.43847791,38.3726706 -1.75135181,38.4512399 -2.10772473,38.4512399 C-2.68297237,38.4512399 -3.15999984,38.2604289 -3.53882145,37.8788012 C-3.91764306,37.4971735 -4.10705103,37.0159369 -4.10705103,36.4350771 C-4.10705103,35.8037078 -3.88888111,35.2866942 -3.45253474,34.8840208 C-3.01618836,34.4813475 -2.45848713,34.2800138 -1.77941431,34.2800138 C-0.878660696,34.2800138 -0.21082224,34.6532177 0.224121094,35.3996366 C0.563657503,35.9215686 0.733423161,36.5950191 0.733423161,37.4200084 C0.733423161,38.4330055 0.508939646,39.2271159 0.0599658821,39.8023635 C-0.389007882,40.3776112 -1.00914359,40.6652307 -1.80045985,40.6652307 Z M-1.77099609,37.4957723 C-1.45390837,37.4957723 -1.19084175,37.3926502 -0.981788346,37.1864029 C-0.772734937,36.9801556 -0.6682098,36.721298 -0.6682098,36.4098225 C-0.6682098,36.0927348 -0.773436448,35.8268621 -0.9838929,35.6121965 C-1.19434935,35.3975309 -1.45531144,35.2901998 -1.76678699,35.2901998 C-2.07826253,35.2901998 -2.33992613,35.3961279 -2.55178563,35.6079874 C-2.76364512,35.8198469 -2.86957328,36.0829135 -2.86957328,36.3971952 C-2.86957328,36.7142829 -2.76574965,36.976648 -2.55809929,37.1842984 C-2.35044892,37.3919487 -2.08808381,37.4957723 -1.77099609,37.4957723 Z" id="19" fill="#FFFFFF" mask="url(#mask-2)"></path>
                <path d="M-8.5181962,54.204528 L-8.5181962,54.2213645 L-7.33964597,54.2213645 L-7.33964597,54.2003189 C-7.33964597,53.9112921 -7.24774803,53.6776889 -7.06394939,53.4995024 C-6.88015076,53.321316 -6.64093551,53.2322241 -6.34629648,53.2322241 C-6.06849396,53.2322241 -5.84050289,53.3121963 -5.66231643,53.4721432 C-5.48412997,53.6320901 -5.39503807,53.8369314 -5.39503807,54.086673 C-5.39503807,54.2887112 -5.46659219,54.4935524 -5.60970258,54.7012028 C-5.75281297,54.9088531 -6.03902945,55.221727 -6.46836061,55.6398339 L-8.44664137,57.6139055 L-8.44664137,58.4683544 L-4.06495995,58.4683544 L-4.06495995,57.4455412 L-6.7251162,57.4455412 L-6.7251162,57.3697772 L-5.56340239,56.2248999 C-5.03585822,55.7254166 -4.66896798,55.3129281 -4.46272065,54.9874221 C-4.25647333,54.6619161 -4.15335122,54.335012 -4.15335122,54.0067 C-4.15335122,53.487574 -4.35398336,53.0631599 -4.75525366,52.7334448 C-5.15652396,52.4037297 -5.67283604,52.2388746 -6.3042054,52.2388746 C-6.96082953,52.2388746 -7.49397788,52.4205659 -7.90366644,52.7839541 C-8.313355,53.1473422 -8.5181962,53.6208621 -8.5181962,54.204528 Z M-0.474590833,58.6240914 C-1.38095662,58.6240914 -2.04879507,58.2494846 -2.47812624,57.5002596 C-2.82046873,56.9811337 -2.99163741,56.3076831 -2.99163741,55.4798878 C-2.99163741,54.4668907 -2.76645239,53.6734818 -2.31607558,53.0996372 C-1.86569877,52.5257926 -1.24486155,52.2388746 -0.453545293,52.2388746 C0.124508428,52.2388746 0.61837216,52.3939085 1.02806072,52.703981 C1.43774928,53.0140535 1.68468115,53.4216314 1.76886373,53.9267269 L0.510340437,53.9267269 C0.451412631,53.7190765 0.334260296,53.5542215 0.15887992,53.4321567 C-0.0165004566,53.310092 -0.223446197,53.2490605 -0.461963509,53.2490605 C-0.87726424,53.2490605 -1.20276534,53.4384685 -1.43847656,53.8172901 C-1.67418779,54.1961117 -1.78642955,54.7082147 -1.7752052,55.3536145 L-1.69944126,55.3536145 C-1.55913696,55.0645877 -1.35429575,54.8422087 -1.08491149,54.6864709 C-0.815527233,54.5307331 -0.504056356,54.4528654 -0.150489517,54.4528654 C0.427564204,54.4528654 0.905293183,54.6429749 1.28271175,55.0231995 C1.66013032,55.4034242 1.84883678,55.8853622 1.84883678,56.4690281 C1.84883678,57.0975914 1.63136837,57.6139035 1.19642504,58.0179799 C0.761481706,58.4220563 0.204481985,58.6240914 -0.474590833,58.6240914 Z M-0.487218157,57.6139055 C-0.175742608,57.6139055 0.0852194778,57.5072758 0.29567593,57.2940133 C0.506132381,57.0807508 0.611359029,56.8183857 0.611359029,56.5069101 C0.611359029,56.1870163 0.508236914,55.9232482 0.301989592,55.7155978 C0.0957422688,55.5079474 -0.165921328,55.4041238 -0.483009049,55.4041238 C-0.800096769,55.4041238 -1.06316339,55.5079474 -1.2722168,55.7155978 C-1.48127021,55.9232482 -1.58579534,56.1828072 -1.58579534,56.4942828 C-1.58579534,56.8113705 -1.48056869,57.0772432 -1.27011224,57.2919087 C-1.05965579,57.5065743 -0.798693705,57.6139055 -0.487218157,57.6139055 Z" id="26" fill="#FFFFFF" mask="url(#mask-2)"></path>
                <path d="M34.6868943,22.5506329 L35.9580449,22.5506329 L35.9580449,16.4768901 L34.6868943,16.4768901 L34.4511842,16.6410453 C34.2940434,16.7504826 34.1116506,16.8774561 33.9040002,17.0219696 C33.6963498,17.166483 33.5132555,17.2934565 33.3547116,17.4028938 L33.116897,17.5670491 L33.116897,18.7161355 L33.3420843,18.5603985 C33.4922099,18.4565734 33.6661846,18.3359135 33.8640137,18.1984152 C34.0618427,18.060917 34.2358175,17.9402571 34.3859431,17.836432 L34.6111303,17.680695 L34.6868943,17.680695 L34.6868943,22.5506329 Z M40.4786269,22.5506329 L40.4786269,21.4731013 L37.5027875,21.4731013 L37.5027875,20.3871514 C37.6402857,20.1289915 37.7932151,19.8554022 37.9615803,19.5663753 C38.1299455,19.2773485 38.3137413,18.9714897 38.5129734,18.6487898 C38.7122056,18.3260899 38.9282709,17.9837526 39.1611761,17.6217675 C39.3940812,17.2597824 39.6424161,16.8781604 39.9061882,16.4768901 L41.69085,16.4768901 L41.69085,20.450288 L42.4863714,20.450288 L42.4863714,21.4731013 L41.69085,21.4731013 L41.69085,22.5506329 L40.4786269,22.5506329 Z M38.6476649,20.4166152 L38.6476649,20.4839609 L40.5080906,20.4839609 L40.5080906,17.4407758 L40.4407449,17.4407758 C40.3032467,17.6512323 40.1643475,17.8658946 40.0240432,18.0847693 C39.8837389,18.303644 39.7406307,18.5323366 39.5947142,18.7708539 C39.4487977,19.0093712 39.2979729,19.2647212 39.1422351,19.5369116 C38.9864973,19.8091019 38.8216422,20.1023335 38.6476649,20.4166152 Z" id="14" fill="#FFFFFF" mask="url(#mask-2)"></path>
                <path d="M14.1362614,22.5506329 L15.407412,22.5506329 L15.407412,16.4768901 L14.1362614,16.4768901 L13.9005513,16.6410453 C13.7434105,16.7504826 13.5610177,16.8774561 13.3533673,17.0219696 C13.1457169,17.166483 12.9626226,17.2934565 12.8040787,17.4028938 L12.5662641,17.5670491 L12.5662641,18.7161355 L12.7914514,18.5603985 C12.941577,18.4565734 13.1155517,18.3359135 13.3133808,18.1984152 C13.5112098,18.060917 13.6851845,17.9402571 13.8353102,17.836432 L14.0604974,17.680695 L14.1362614,17.680695 L14.1362614,22.5506329 Z M18.5726612,19.903104 L19.3260915,19.903104 C19.6656279,19.903104 19.9336051,19.9816732 20.1300312,20.138814 C20.3264572,20.2959549 20.4246687,20.5120202 20.4246687,20.7870167 C20.4246687,21.0507887 20.3250542,21.2661526 20.125822,21.4331147 C19.9265899,21.6000769 19.6670309,21.6835567 19.3471371,21.6835567 C19.0216311,21.6835567 18.757863,21.6056889 18.5558248,21.4499512 C18.3537866,21.2942134 18.2429478,21.0858646 18.2233052,20.8248986 L17.0026639,20.8248986 C17.0307248,21.391728 17.2573128,21.8470086 17.6824349,22.1907542 C18.1075569,22.5344997 18.658243,22.7063699 19.3345097,22.7063699 C20.027613,22.7063699 20.5986429,22.5337982 21.0476167,22.1886496 C21.4965905,21.843501 21.721074,21.4043552 21.721074,20.8711988 C21.721074,20.4727346 21.5997126,20.1430244 21.3569861,19.8820584 C21.1142597,19.6210924 20.783848,19.4681631 20.3657412,19.4232657 L20.3657412,19.3475017 C20.7052776,19.2773496 20.9767624,19.1160021 21.1802036,18.8634543 C21.3836448,18.6109066 21.4853639,18.3078538 21.4853639,17.954287 C21.4853639,17.4800584 21.2840303,17.0893168 20.8813569,16.7820504 C20.4786836,16.474784 19.9658791,16.3211531 19.342928,16.3211531 C18.6806917,16.3211531 18.1503494,16.4881127 17.7518851,16.8220369 C17.3534209,17.1559612 17.1429676,17.6091373 17.1205189,18.1815788 L18.2948601,18.1815788 C18.3116966,17.9121946 18.4113111,17.6989352 18.5937067,17.5417944 C18.7761023,17.3846536 19.0146161,17.3060844 19.3092551,17.3060844 C19.6067002,17.3060844 19.8424079,17.3804445 20.0163852,17.5291671 C20.1903626,17.6778896 20.2773499,17.8771188 20.2773499,18.1268604 C20.2773499,18.3822142 20.1889595,18.587757 20.0121761,18.7434947 C19.8353927,18.8992325 19.6024911,18.9771002 19.3134642,18.9771002 L18.5726612,18.9771002 L18.5726612,19.903104 Z" id="13" fill="#FFFFFF" mask="url(#mask-2)"></path>
                <path d="M-6.97766268,22.5506329 L-5.70651206,22.5506329 L-5.70651206,16.4768901 L-6.97766268,16.4768901 L-7.21337273,16.6410453 C-7.37051354,16.7504826 -7.5529064,16.8774561 -7.76055676,17.0219696 C-7.96820713,17.166483 -8.1513015,17.2934565 -8.30984536,17.4028938 L-8.54765996,17.5670491 L-8.54765996,18.7161355 L-8.32247268,18.5603985 C-8.17234708,18.4565734 -7.99837235,18.3359135 -7.80054329,18.1984152 C-7.60271423,18.060917 -7.4287395,17.9402571 -7.2786139,17.836432 L-7.05342662,17.680695 L-6.97766268,17.680695 L-6.97766268,22.5506329 Z M-4.0944237,18.2868065 L-4.0944237,18.3036429 L-2.91587347,18.3036429 L-2.91587347,18.2825974 C-2.91587347,17.9935705 -2.82397553,17.7599674 -2.64017689,17.5817809 C-2.45637826,17.4035945 -2.21716301,17.3145026 -1.92252398,17.3145026 C-1.64472147,17.3145026 -1.4167304,17.3944748 -1.23854393,17.5544217 C-1.06035747,17.7143686 -0.971265576,17.9192098 -0.971265576,18.1689515 C-0.971265576,18.3709897 -1.0428197,18.5758309 -1.18593008,18.7834813 C-1.32904047,18.9911316 -1.61525695,19.3040055 -2.04458811,19.7221123 L-4.02286887,21.696184 L-4.02286887,22.5506329 L0.358812549,22.5506329 L0.358812549,21.5278197 L-2.3013437,21.5278197 L-2.3013437,21.4520557 L-1.1396299,20.3071784 C-0.612085723,19.807695 -0.245195478,19.3952066 -0.0389481557,19.0697006 C0.167299167,18.7441946 0.270421282,18.4172905 0.270421282,18.0889784 C0.270421282,17.5698525 0.0697891404,17.1454384 -0.331481161,16.8157233 C-0.732751462,16.4860082 -1.24906355,16.3211531 -1.8804329,16.3211531 C-2.53705703,16.3211531 -3.07020538,16.5028444 -3.47989394,16.8662326 C-3.8895825,17.2296207 -4.0944237,17.7031406 -4.0944237,18.2868065 Z" id="12" fill="#FFFFFF" mask="url(#mask-2)"></path>
                <circle id="Oval-4" fill="#FF0000" mask="url(#mask-2)" cx="17.8037975" cy="26.1424051" r="1.43670886"></circle>
            </g>
        </g>
    </g>
</svg>