<?xml version="1.0" encoding="UTF-8"?>
<svg width="1024px" height="1024px" viewBox="0 0 1024 1024" version="1.1" xmlns="http://www.w3.org/2000/svg" xmlns:xlink="http://www.w3.org/1999/xlink">
    <!-- Generator: Sketch 45.2 (43514) - http://www.bohemiancoding.com/sketch -->
    <title>1024x1024</title>
    <desc>Created with Sketch.</desc>
    <defs>
        <linearGradient x1="50%" y1="80%" x2="50%" y2="10%" id="linearGradient-1">
            <stop stop-color="#BFBFBF" offset="0%"></stop>
            <stop stop-color="#FAFAFA" offset="100%"></stop>
        </linearGradient>
        <circle id="path-2" cx="449" cy="449" r="449"></circle>
        <filter x="-3.7%" y="-2.1%" width="107.5%" height="108.2%" filterUnits="objectBoundingBox" id="filter-3">
            <feOffset dx="0" dy="22" in="SourceAlpha" result="shadowOffsetOuter1"></feOffset>
            <feGaussianBlur stdDeviation="7.5" in="shadowOffsetOuter1" result="shadowBlurOuter1"></feGaussianBlur>
            <feColorMatrix values="0 0 0 0 0   0 0 0 0 0   0 0 0 0 0  0 0 0 0.3 0" type="matrix" in="shadowBlurOuter1"></feColorMatrix>
        </filter>
        <filter x="-3.3%" y="-1.7%" width="106.7%" height="107.5%" filterUnits="objectBoundingBox" id="filter-4">
            <feGaussianBlur stdDeviation="15" in="SourceAlpha" result="shadowBlurInner1"></feGaussianBlur>
            <feOffset dx="0" dy="0" in="shadowBlurInner1" result="shadowOffsetInner1"></feOffset>
            <feComposite in="shadowOffsetInner1" in2="SourceAlpha" operator="arithmetic" k2="-1" k3="1" result="shadowInnerInner1"></feComposite>
            <feColorMatrix values="0 0 0 0 0   0 0 0 0 0   0 0 0 0 0  0 0 0 0.04 0" type="matrix" in="shadowInnerInner1" result="shadowMatrixInner1"></feColorMatrix>
            <feOffset dx="0" dy="1" in="SourceAlpha" result="shadowOffsetInner2"></feOffset>
            <feComposite in="shadowOffsetInner2" in2="SourceAlpha" operator="arithmetic" k2="-1" k3="1" result="shadowInnerInner2"></feComposite>
            <feColorMatrix values="0 0 0 0 1   0 0 0 0 1   0 0 0 0 1  0 0 0 1 0" type="matrix" in="shadowInnerInner2" result="shadowMatrixInner2"></feColorMatrix>
            <feMorphology radius="1" operator="erode" in="SourceAlpha" result="shadowSpreadInner3"></feMorphology>
            <feOffset dx="0" dy="0" in="shadowSpreadInner3" result="shadowOffsetInner3"></feOffset>
            <feComposite in="shadowOffsetInner3" in2="SourceAlpha" operator="arithmetic" k2="-1" k3="1" result="shadowInnerInner3"></feComposite>
            <feColorMatrix values="0 0 0 0 1   0 0 0 0 1   0 0 0 0 1  0 0 0 0.4 0" type="matrix" in="shadowInnerInner3" result="shadowMatrixInner3"></feColorMatrix>
            <feMerge>
                <feMergeNode in="shadowMatrixInner1"></feMergeNode>
                <feMergeNode in="shadowMatrixInner2"></feMergeNode>
                <feMergeNode in="shadowMatrixInner3"></feMergeNode>
            </feMerge>
        </filter>
        <linearGradient x1="50%" y1="0%" x2="50%" y2="100%" id="linearGradient-5">
            <stop stop-color="#52EDC7" offset="0%"></stop>
            <stop stop-color="#5AC8FB" offset="100%"></stop>
        </linearGradient>
        <path d="M407.813333,436.543333 C402.18,430.91 402.18,421.896667 407.813333,416.826667 C413.446667,411.193333 422.46,411.193333 427.53,416.826667 C439.36,428.656667 458.513333,428.656667 469.78,416.826667 C475.413333,411.193333 484.426667,411.193333 489.496667,416.826667 C495.13,422.46 495.13,431.473333 489.496667,436.543333 C478.23,447.81 463.02,453.443333 448.373333,453.443333 C433.726667,453.443333 419.08,447.81 407.813333,436.543333 L407.813333,436.543333 Z M510.903333,367.253333 C510.903333,354.296667 521.606667,343.593333 534.563333,343.593333 C547.52,343.593333 558.223333,354.296667 558.223333,367.253333 C558.223333,380.21 547.52,390.913333 534.563333,390.913333 C521.606667,390.913333 510.903333,380.21 510.903333,367.253333 L510.903333,367.253333 Z M364.436667,390.913333 C351.48,390.913333 340.776667,380.21 340.776667,367.253333 C340.776667,354.296667 351.48,343.593333 364.436667,343.593333 C377.393333,343.593333 388.096667,354.296667 388.096667,367.253333 C388.096667,380.21 377.393333,390.913333 364.436667,390.913333 L364.436667,390.913333 Z M409.503333,521.043333 C402.743333,517.1 394.293333,519.916667 390.35,526.676667 L337.96,620.19 C334.016667,626.95 336.833333,635.4 343.593333,639.343333 C345.846667,640.47 348.1,641.033333 350.353333,641.033333 C355.423333,641.033333 359.93,638.216667 362.746667,633.71 L415.136667,540.196667 C418.516667,533.436667 416.263333,524.423333 409.503333,521.043333 L409.503333,521.043333 Z M489.496667,521.043333 C482.736667,524.986667 480.483333,533.436667 483.863333,540.196667 L535.69,633.71 C538.506667,638.216667 543.013333,641.033333 548.083333,641.033333 C550.336667,641.033333 552.59,640.47 554.843333,639.343333 C561.603333,635.4 563.856667,626.95 560.476667,620.19 L508.65,526.676667 C504.706667,519.353333 496.256667,517.1 489.496667,521.043333 L489.496667,521.043333 Z M449.5,519.353333 C441.613333,519.353333 435.416667,525.55 435.416667,533.436667 L435.416667,626.95 C435.416667,634.836667 441.613333,641.033333 449.5,641.033333 C457.386667,641.033333 463.583333,634.836667 463.583333,626.95 L463.583333,533.436667 C463.583333,525.55 457.386667,519.353333 449.5,519.353333 L449.5,519.353333 Z M703,456.823333 L703,518.226667 C703,620.19 637.09,703 556.533333,703 L342.466667,703 C261.91,703 196,620.19 196,518.226667 L196,456.823333 C196,404.433333 220.223333,339.65 258.53,286.696667 C300.78,229.236667 353.17,196 401.616667,196 L497.383333,196 C545.83,196 598.22,229.236667 640.47,286.696667 C678.776667,339.65 703,404.433333 703,456.823333 L703,456.823333 Z M497.383333,224.166667 L463.583333,224.166667 L463.583333,289.513333 L491.186667,289.513333 L524.986667,228.673333 C515.973333,225.856667 506.396667,224.166667 497.383333,224.166667 L497.383333,224.166667 Z M401.616667,224.166667 C394.293333,224.166667 386.97,225.293333 379.083333,226.983333 L414.01,289.513333 L435.416667,289.513333 L435.416667,224.166667 L401.616667,224.166667 L401.616667,224.166667 Z M674.833333,456.823333 C674.833333,380.773333 617.373333,279.373333 550.9,240.503333 L526.676667,284.443333 C532.31,282.19 538.506667,279.936667 544.14,276.556667 C551.463333,272.613333 563.856667,265.853333 604.416667,330.636667 C623.57,361.056667 644.976667,400.49 644.976667,438.796667 C644.976667,475.413333 615.12,505.833333 577.94,505.833333 L554.843333,505.833333 C546.956667,505.833333 540.76,499.636667 540.76,491.75 C540.76,483.863333 546.956667,477.666667 554.843333,477.666667 L577.94,477.666667 C599.346667,477.666667 616.81,460.203333 616.81,438.796667 C616.81,407.813333 597.093333,372.323333 580.193333,345.283333 C573.433333,334.58 558.223333,313.173333 550.336667,304.723333 C533.436667,313.173333 516.536667,317.116667 500.2,317.68 L499.636667,317.68 L499.073333,317.68 L497.383333,317.68 L405.56,317.68 L405.56,317.68 L401.053333,317.68 C383.59,317.68 366.126667,313.173333 348.1,304.723333 C340.213333,313.173333 325.003333,334.58 318.243333,345.283333 C301.343333,372.323333 281.626667,407.813333 281.626667,438.796667 C281.626667,460.203333 299.09,477.666667 320.496667,477.666667 L343.593333,477.666667 C351.48,477.666667 357.676667,483.863333 357.676667,491.75 C357.676667,499.636667 352.043333,505.833333 344.156667,505.833333 L321.06,505.833333 C284.443333,505.833333 254.023333,475.976667 254.023333,438.796667 C254.023333,400.49 275.993333,360.493333 294.583333,330.636667 C335.143333,265.853333 347.536667,272.613333 354.86,276.556667 C363.31,281.063333 371.76,284.443333 380.21,286.696667 L353.17,237.686667 C284.443333,274.303333 224.166667,379.083333 224.166667,456.823333 L224.166667,518.226667 C224.166667,546.956667 230.363333,573.996667 240.503333,597.093333 C241.066667,596.53 242.193333,595.403333 243.32,594.84 L335.143333,539.633333 C341.903333,535.69 350.353333,537.943333 354.296667,544.703333 C358.24,551.463333 355.986667,559.913333 349.226667,563.856667 L257.403333,619.063333 C256.276667,619.626667 254.586667,620.19 253.46,620.753333 C274.866667,653.99 306.976667,674.833333 342.466667,674.833333 L556.533333,674.833333 C592.023333,674.833333 623.57,653.99 645.54,621.316667 C643.85,620.753333 642.723333,620.753333 641.596667,619.626667 L549.773333,564.42 C543.013333,560.476667 540.76,552.026667 544.703333,545.266667 C548.646667,538.506667 557.096667,536.253333 563.856667,540.196667 L655.68,595.403333 C656.806667,595.966667 657.37,596.53 658.496667,597.656667 C668.636667,574.56 674.833333,547.52 674.833333,518.79 L674.833333,456.823333 L674.833333,456.823333 Z" id="path-6"></path>
        <filter x="-15.3%" y="-14.9%" width="130.6%" height="130.6%" filterUnits="objectBoundingBox" id="filter-7">
            <feMorphology radius="25" operator="dilate" in="SourceAlpha" result="shadowSpreadOuter1"></feMorphology>
            <feOffset dx="0" dy="2" in="shadowSpreadOuter1" result="shadowOffsetOuter1"></feOffset>
            <feGaussianBlur stdDeviation="0.5" in="shadowOffsetOuter1" result="shadowBlurOuter1"></feGaussianBlur>
            <feColorMatrix values="0 0 0 0 0.915683461   0 0 0 0 0.915683461   0 0 0 0 0.915683461  0 0 0 0.5 0" type="matrix" in="shadowBlurOuter1"></feColorMatrix>
        </filter>
        <circle id="path-8" cx="449" cy="449" r="413"></circle>
        <filter x="-0.6%" y="-0.6%" width="101.2%" height="101.2%" filterUnits="objectBoundingBox" id="filter-9">
            <feMorphology radius="1" operator="dilate" in="SourceAlpha" result="shadowSpreadOuter1"></feMorphology>
            <feOffset dx="0" dy="0" in="shadowSpreadOuter1" result="shadowOffsetOuter1"></feOffset>
            <feGaussianBlur stdDeviation="1" in="shadowOffsetOuter1" result="shadowBlurOuter1"></feGaussianBlur>
            <feComposite in="shadowBlurOuter1" in2="SourceAlpha" operator="out" result="shadowBlurOuter1"></feComposite>
            <feColorMatrix values="0 0 0 0 1   0 0 0 0 1   0 0 0 0 1  0 0 0 0.5 0" type="matrix" in="shadowBlurOuter1"></feColorMatrix>
        </filter>
        <filter x="-0.6%" y="-0.6%" width="101.2%" height="101.2%" filterUnits="objectBoundingBox" id="filter-10">
            <feGaussianBlur stdDeviation="1.5" in="SourceAlpha" result="shadowBlurInner1"></feGaussianBlur>
            <feOffset dx="0" dy="0" in="shadowBlurInner1" result="shadowOffsetInner1"></feOffset>
            <feComposite in="shadowOffsetInner1" in2="SourceAlpha" operator="arithmetic" k2="-1" k3="1" result="shadowInnerInner1"></feComposite>
            <feColorMatrix values="0 0 0 0 0   0 0 0 0 0   0 0 0 0 0  0 0 0 0.5 0" type="matrix" in="shadowInnerInner1"></feColorMatrix>
        </filter>
    </defs>
    <g id="Template" stroke="none" stroke-width="1" fill="none" fill-rule="evenodd">
        <g id="1024x1024">
            <g id="Icon" transform="translate(63.000000, 63.000000)">
                <g id="Base">
                    <use fill="black" fill-opacity="1" filter="url(#filter-3)" xlink:href="#path-2"></use>
                    <use fill="url(#linearGradient-1)" fill-rule="evenodd" xlink:href="#path-2"></use>
                    <use fill="#F2EDED" fill-rule="evenodd" xlink:href="#path-2"></use>
                    <use fill="black" fill-opacity="1" filter="url(#filter-4)" xlink:href="#path-2"></use>
                </g>
                <circle id="Gradient---Turqoise" fill="url(#linearGradient-5)" cx="449" cy="449" r="413"></circle>
                <g id="Daruma">
                    <use fill="black" fill-opacity="1" filter="url(#filter-7)" xlink:href="#path-6"></use>
                    <use fill="#000000" fill-rule="evenodd" xlink:href="#path-6"></use>
                </g>
                <ellipse id="Color-fix" fill="#A0DDEB" cx="513" cy="630.5" rx="2" ry="5.5"></ellipse>
                <g id="Inner-Circle">
                    <use fill="black" fill-opacity="1" filter="url(#filter-9)" xlink:href="#path-8"></use>
                    <use fill-opacity="0" fill="#000000" fill-rule="evenodd" xlink:href="#path-8"></use>
                    <use fill="black" fill-opacity="1" filter="url(#filter-10)" xlink:href="#path-8"></use>
                    <use stroke="#B0B0B0" stroke-width="1" xlink:href="#path-8"></use>
                </g>
            </g>
        </g>
    </g>
</svg>