<?xml version="1.0" encoding="UTF-8"?>
<svg width="926px" height="928px" viewBox="0 0 926 928" version="1.1" xmlns="http://www.w3.org/2000/svg" xmlns:xlink="http://www.w3.org/1999/xlink">
    <!-- Generator: Sketch 45.2 (43514) - http://www.bohemiancoding.com/sketch -->
    <title>Icon</title>
    <desc>Created with Sketch.</desc>
    <defs>
        <linearGradient x1="50%" y1="0%" x2="50%" y2="100%" id="linearGradient-1">
            <stop stop-color="#C644FC" offset="0%"></stop>
            <stop stop-color="#5856D6" offset="100%"></stop>
        </linearGradient>
        <linearGradient x1="50%" y1="0%" x2="50%" y2="100%" id="linearGradient-2">
            <stop stop-color="#FDFDFD" offset="0%"></stop>
            <stop stop-color="#D2D2D2" offset="100%"></stop>
        </linearGradient>
        <path d="M691.772589,0 L208.227411,0 C93.7031325,0 0,93.7031325 0,208.227411 L0,691.772589 C0,806.296868 93.7190874,900 208.227411,900 L691.772589,900 C806.296868,900 900,806.296868 900,691.772589 L900,208.227411 C900,93.7031325 806.296868,0 691.772589,0 Z M830.596181,691.788544 C830.596181,768.340158 768.324204,830.612136 691.772589,830.612136 L208.227411,830.612136 C131.675796,830.612136 69.4038185,768.340158 69.4038185,691.788544 L69.4038185,208.227411 C69.4038185,131.675796 131.675796,69.4038185 208.227411,69.4038185 L691.772589,69.4038185 C768.324204,69.4038185 830.596181,131.675796 830.596181,208.227411 L830.596181,691.788544 L830.596181,691.788544 Z M718.385364,265.234271 C730.048397,276.913259 730.048397,295.835771 718.385364,307.514758 L362.016699,663.883423 L339.280966,672.594799 L317.598256,661.506143 L179.476679,490.246237 L179.476679,490.246237 C169.105994,477.402542 171.116311,458.559804 183.975961,448.205074 C196.819656,437.834388 215.646439,439.860661 226.03308,452.704356 L343.253736,598.069457 L676.104877,265.234271 C687.767909,253.555284 706.690422,253.555284 718.385364,265.234271 Z" id="path-3"></path>
        <filter x="-2.8%" y="-2.3%" width="105.7%" height="106.2%" filterUnits="objectBoundingBox" id="filter-4">
            <feOffset dx="0" dy="10" in="SourceAlpha" result="shadowOffsetOuter1"></feOffset>
            <feGaussianBlur stdDeviation="2.5" in="shadowOffsetOuter1" result="shadowBlurOuter1"></feGaussianBlur>
            <feColorMatrix values="0 0 0 0 0   0 0 0 0 0   0 0 0 0 0  0 0 0 0.4 0" type="matrix" in="shadowBlurOuter1" result="shadowMatrixOuter1"></feColorMatrix>
            <feOffset dx="0" dy="0" in="SourceAlpha" result="shadowOffsetOuter2"></feOffset>
            <feGaussianBlur stdDeviation="6.5" in="shadowOffsetOuter2" result="shadowBlurOuter2"></feGaussianBlur>
            <feColorMatrix values="0 0 0 0 0   0 0 0 0 0   0 0 0 0 0  0 0 0 0.198454484 0" type="matrix" in="shadowBlurOuter2" result="shadowMatrixOuter2"></feColorMatrix>
            <feMerge>
                <feMergeNode in="shadowMatrixOuter1"></feMergeNode>
                <feMergeNode in="shadowMatrixOuter2"></feMergeNode>
            </feMerge>
        </filter>
        <filter x="-2.3%" y="-1.8%" width="104.7%" height="105.2%" filterUnits="objectBoundingBox" id="filter-5">
            <feGaussianBlur stdDeviation="1.5" in="SourceAlpha" result="shadowBlurInner1"></feGaussianBlur>
            <feOffset dx="0" dy="-3" in="shadowBlurInner1" result="shadowOffsetInner1"></feOffset>
            <feComposite in="shadowOffsetInner1" in2="SourceAlpha" operator="arithmetic" k2="-1" k3="1" result="shadowInnerInner1"></feComposite>
            <feColorMatrix values="0 0 0 0 0   0 0 0 0 0   0 0 0 0 0  0 0 0 0.15 0" type="matrix" in="shadowInnerInner1" result="shadowMatrixInner1"></feColorMatrix>
            <feGaussianBlur stdDeviation="1.5" in="SourceAlpha" result="shadowBlurInner2"></feGaussianBlur>
            <feOffset dx="0" dy="3" in="shadowBlurInner2" result="shadowOffsetInner2"></feOffset>
            <feComposite in="shadowOffsetInner2" in2="SourceAlpha" operator="arithmetic" k2="-1" k3="1" result="shadowInnerInner2"></feComposite>
            <feColorMatrix values="0 0 0 0 1   0 0 0 0 1   0 0 0 0 1  0 0 0 0.5 0" type="matrix" in="shadowInnerInner2" result="shadowMatrixInner2"></feColorMatrix>
            <feMorphology radius="1" operator="erode" in="SourceAlpha" result="shadowSpreadInner3"></feMorphology>
            <feOffset dx="0" dy="0" in="shadowSpreadInner3" result="shadowOffsetInner3"></feOffset>
            <feComposite in="shadowOffsetInner3" in2="SourceAlpha" operator="arithmetic" k2="-1" k3="1" result="shadowInnerInner3"></feComposite>
            <feColorMatrix values="0 0 0 0 1   0 0 0 0 1   0 0 0 0 1  0 0 0 0.4 0" type="matrix" in="shadowInnerInner3" result="shadowMatrixInner3"></feColorMatrix>
            <feMerge>
                <feMergeNode in="shadowMatrixInner1"></feMergeNode>
                <feMergeNode in="shadowMatrixInner2"></feMergeNode>
                <feMergeNode in="shadowMatrixInner3"></feMergeNode>
            </feMerge>
        </filter>
    </defs>
    <g id="Template" stroke="none" stroke-width="1" fill="none" fill-rule="evenodd">
        <g id="Done-Timer" transform="translate(-49.000000, -49.000000)">
            <g id="Icon" transform="translate(62.000000, 62.000000)">
                <path d="M449.209132,874.565217 C845.730722,874.565217 852.595646,853.453719 852.595646,456.932129 C852.595646,60.4105384 845.730722,50.8695652 449.209132,50.8695652 C52.6875419,50.8695652 49.4734773,60.4105384 49.4734773,456.932129 C49.4734773,853.453719 52.6875419,874.565217 449.209132,874.565217 Z" id="Purple-Gradient" fill="url(#linearGradient-1)"></path>
                <g id="Shape" fill-rule="nonzero">
                    <use fill="black" fill-opacity="1" filter="url(#filter-4)" xlink:href="#path-3"></use>
                    <use fill="url(#linearGradient-2)" fill-rule="evenodd" xlink:href="#path-3"></use>
                    <use fill="black" fill-opacity="1" filter="url(#filter-5)" xlink:href="#path-3"></use>
                </g>
            </g>
        </g>
    </g>
</svg>